<?xml version="1.0" standalone="no"?>
<!DOCTYPE svg PUBLIC "-//W3C//DTD SVG 20010904//EN"
 "http://www.w3.org/TR/2001/REC-SVG-20010904/DTD/svg10.dtd">
<svg version="1.0" xmlns="http://www.w3.org/2000/svg"
 width="70.000000pt" height="70.000000pt" viewBox="0 0 70.000000 70.000000"
 preserveAspectRatio="xMidYMid meet">
<metadata>
Created by potrace 1.14, written by Peter Selinger 2001-2017
</metadata>
<g transform="translate(0.000000,70.000000) scale(0.100000,-0.100000)"
fill="#000000" stroke="none">
<path d="M49 408 c-1 -2 -2 -83 -3 -180 l-1 -178 111 0 111 0 1 30 c1 33 0 33
-105 32 l-43 -1 0 149 0 150 -35 0 c-19 0 -36 -1 -36 -2z"/>
<path d="M375 238 c-33 -95 -62 -176 -64 -181 -1 -4 16 -7 40 -5 41 3 44 5 55
43 l11 40 64 0 64 0 15 -43 c13 -39 17 -42 52 -42 21 0 38 4 38 9 0 5 -28 86
-61 180 l-61 171 -47 0 -46 0 -60 -172z m113 -36 c-22 -2 -42 -1 -45 2 -4 4
13 69 34 126 3 8 15 -16 28 -55 l22 -70 -39 -3z"/>
</g>
</svg>
