<?xml version="1.0"?>
<svg version="1.1" xmlns="http://www.w3.org/2000/svg" width="160px" height="160px" style=""><path fill="#ababab" d="M9.515625,96.7890625l0-19.98828125l4.23828125,0l0,16.48828125l8.107421875,0l0,3.5l-12.345703125,0z M26.75271484375,77.552734375q0-2.037109375,2.26953125-2.037109375t2.26953125,2.037109375q0,0.970703125-0.5673828125,1.5107421875t-1.7021484375,0.5400390625q-2.26953125,0-2.26953125-2.05078125z M31.10037109375,96.7890625l-4.169921875,0l0-15.28515625l4.169921875,0l0,15.28515625z M41.0366796875,96.7890625l-5.82421875-15.28515625l4.361328125,0l2.953125,8.708984375q0.4921875,1.654296875,0.615234375,3.130859375l0.08203125,0q0.068359375-1.3125,0.615234375-3.130859375l2.939453125-8.708984375l4.361328125,0l-5.82421875,15.28515625l-4.279296875,0z M61.58236328125,84.18359375q-1.326171875,0-2.078125,0.8408203125t-0.861328125,2.3857421875l5.8515625,0q-0.02734375-1.544921875-0.806640625-2.3857421875t-2.10546875-0.8408203125z M62.17025390625,97.0625q-3.69140625,0-5.76953125-2.037109375t-2.078125-5.76953125q0-3.841796875,1.9208984375-5.9404296875t5.3115234375-2.0986328125q3.240234375,0,5.044921875,1.845703125t1.8046875,5.099609375l0,2.0234375l-9.857421875,0q0.068359375,1.77734375,1.052734375,2.775390625t2.76171875,0.998046875q1.380859375,0,2.611328125-0.287109375t2.5703125-0.916015625l0,3.2265625q-1.09375,0.546875-2.337890625,0.8134765625t-3.03515625,0.2666015625z"/><path fill="#e4f0b0" d="M87.751953125,96.7890625l-1.44921875-4.7578125l-7.287109375,0l-1.44921875,4.7578125l-4.56640625,0l7.0546875-20.0703125l5.181640625,0l7.08203125,20.0703125l-4.56640625,0z M85.291015625,88.4765625q-2.009765625-6.466796875-2.2626953125-7.314453125t-0.3623046875-1.33984375q-0.451171875,1.75-2.583984375,8.654296875l5.208984375,0z M104.82498046875,97.0625q-2.693359375,0-4.224609375-1.955078125l-0.21875,0q0.21875,1.9140625,0.21875,2.21484375l0,6.193359375l-4.169921875,0l0-22.01171875l3.390625,0l0.587890625,1.982421875l0.19140625,0q1.462890625-2.26953125,4.333984375-2.26953125q2.70703125,0,4.23828125,2.091796875t1.53125,5.810546875q0,2.447265625-0.7177734375,4.251953125t-2.0439453125,2.748046875t-3.1171875,0.943359375z M103.59451171875,84.552734375q-1.544921875,0-2.255859375,0.9501953125t-0.73828125,3.1376953125l0,0.451171875q0,2.4609375,0.7314453125,3.52734375t2.3173828125,1.06640625q2.802734375,0,2.802734375-4.62109375q0-2.255859375-0.6904296875-3.3837890625t-2.1669921875-1.1279296875z M124.4683203125,97.0625q-2.693359375,0-4.224609375-1.955078125l-0.21875,0q0.21875,1.9140625,0.21875,2.21484375l0,6.193359375l-4.169921875,0l0-22.01171875l3.390625,0l0.587890625,1.982421875l0.19140625,0q1.462890625-2.26953125,4.333984375-2.26953125q2.70703125,0,4.23828125,2.091796875t1.53125,5.810546875q0,2.447265625-0.7177734375,4.251953125t-2.0439453125,2.748046875t-3.1171875,0.943359375z M123.2378515625,84.552734375q-1.544921875,0-2.255859375,0.9501953125t-0.73828125,3.1376953125l0,0.451171875q0,2.4609375,0.7314453125,3.52734375t2.3173828125,1.06640625q2.802734375,0,2.802734375-4.62109375q0-2.255859375-0.6904296875-3.3837890625t-2.1669921875-1.1279296875z M146.38119140625,92.25q0,2.3515625-1.6337890625,3.58203125t-4.8876953125,1.23046875q-1.66796875,0-2.84375-0.2255859375t-2.201171875-0.6630859375l0-3.4453125q1.162109375,0.546875,2.6181640625,0.916015625t2.5634765625,0.369140625q2.26953125,0,2.26953125-1.3125q0-0.4921875-0.30078125-0.7998046875t-1.0390625-0.697265625t-1.96875-0.9091796875q-1.763671875-0.73828125-2.5908203125-1.3671875t-1.203125-1.4423828125t-0.3759765625-2.0029296875q0-2.037109375,1.5791015625-3.1513671875t4.4775390625-1.1142578125q2.76171875,0,5.373046875,1.203125l-1.2578125,3.0078125q-1.1484375-0.4921875-2.146484375-0.806640625t-2.037109375-0.314453125q-1.845703125,0-1.845703125,0.998046875q0,0.560546875,0.5947265625,0.970703125t2.6044921875,1.216796875q1.791015625,0.724609375,2.625,1.353515625t1.23046875,1.44921875t0.396484375,1.955078125z"/></svg>
        
