<?xml version="1.0"?>
<svg version="1.1" xmlns="http://www.w3.org/2000/svg" width="250px" height="150px" style=""><path fill="#ababab" d="M11.04296875,101.982421875l0-32.1240234375l6.8115234375,0l0,26.4990234375l13.02978515625,0l0,5.625l-19.84130859375,0z M38.745434570313,71.06689453125q0-3.27392578125,3.6474609375-3.27392578125t3.6474609375,3.27392578125q0,1.56005859375-0.911865234375,2.427978515625t-2.735595703125,0.867919921875q-3.6474609375,0-3.6474609375-3.2958984375z M45.732739257812,101.982421875l-6.70166015625,0l0-24.5654296875l6.70166015625,0l0,24.5654296875z M61.701806640625,101.982421875l-9.3603515625-24.5654296875l7.00927734375,0l4.74609375,13.99658203125q0.791015625,2.65869140625,0.98876953125,5.03173828125l0.1318359375,0q0.10986328125-2.109375,0.98876953125-5.03173828125l4.72412109375-13.99658203125l7.00927734375,0l-9.3603515625,24.5654296875l-6.87744140625,0z M94.721655273438,81.7236328125q-2.13134765625,0-3.33984375,1.351318359375t-1.38427734375,3.834228515625l9.404296875,0q-0.0439453125-2.48291015625-1.29638671875-3.834228515625t-3.3837890625-1.351318359375z M95.666479492188,102.421875q-5.9326171875,0-9.2724609375-3.27392578125t-3.33984375-9.2724609375q0-6.17431640625,3.087158203125-9.547119140625t8.536376953125-3.372802734375q5.20751953125,0,8.10791015625,2.96630859375t2.900390625,8.19580078125l0,3.251953125l-15.84228515625,0q0.10986328125,2.8564453125,1.69189453125,4.46044921875t4.4384765625,1.60400390625q2.21923828125,0,4.19677734375-0.46142578125t4.130859375-1.47216796875l0,5.185546875q-1.7578125,0.87890625-3.75732421875,1.307373046875t-4.8779296875,0.428466796875z"/><path fill="#e4f0b0" d="M140.70849609375,101.982421875l-2.3291015625-7.646484375l-11.71142578125,0l-2.3291015625,7.646484375l-7.3388671875,0l11.337890625-32.255859375l8.32763671875,0l11.3818359375,32.255859375l-7.3388671875,0z M136.75341796875,88.623046875q-3.22998046875-10.39306640625-3.636474609375-11.75537109375t-0.582275390625-2.1533203125q-0.72509765625,2.8125-4.15283203125,13.90869140625l8.37158203125,0z M168.14729003906,102.421875q-4.32861328125,0-6.78955078125-3.14208984375l-0.3515625,0q0.3515625,3.076171875,0.3515625,3.5595703125l0,9.95361328125l-6.70166015625,0l0-35.3759765625l5.44921875,0l0.94482421875,3.18603515625l0.3076171875,0q2.35107421875-3.6474609375,6.96533203125-3.6474609375q4.3505859375,0,6.8115234375,3.36181640625t2.4609375,9.33837890625q0,3.93310546875-1.153564453125,6.83349609375t-3.284912109375,4.41650390625t-5.009765625,1.51611328125z M166.16975097656,82.31689453125q-2.48291015625,0-3.62548828125,1.527099609375t-1.1865234375,5.042724609375l0,0.72509765625q0,3.955078125,1.175537109375,5.6689453125t3.724365234375,1.7138671875q4.50439453125,0,4.50439453125-7.4267578125q0-3.62548828125-1.109619140625-5.438232421875t-3.482666015625-1.812744140625z M199.71694335937,102.421875q-4.32861328125,0-6.78955078125-3.14208984375l-0.3515625,0q0.3515625,3.076171875,0.3515625,3.5595703125l0,9.95361328125l-6.70166015625,0l0-35.3759765625l5.44921875,0l0.94482421875,3.18603515625l0.3076171875,0q2.35107421875-3.6474609375,6.96533203125-3.6474609375q4.3505859375,0,6.8115234375,3.36181640625t2.4609375,9.33837890625q0,3.93310546875-1.153564453125,6.83349609375t-3.284912109375,4.41650390625t-5.009765625,1.51611328125z M197.73940429687,82.31689453125q-2.48291015625,0-3.62548828125,1.527099609375t-1.1865234375,5.042724609375l0,0.72509765625q0,3.955078125,1.175537109375,5.6689453125t3.724365234375,1.7138671875q4.50439453125,0,4.50439453125-7.4267578125q0-3.62548828125-1.109619140625-5.438232421875t-3.482666015625-1.812744140625z M234.93405761719,94.6875q0,3.779296875-2.625732421875,5.7568359375t-7.855224609375,1.9775390625q-2.6806640625,0-4.5703125-0.362548828125t-3.53759765625-1.065673828125l0-5.537109375q1.86767578125,0.87890625,4.207763671875,1.47216796875t4.119873046875,0.59326171875q3.6474609375,0,3.6474609375-2.109375q0-0.791015625-0.4833984375-1.285400390625t-1.669921875-1.12060546875t-3.1640625-1.461181640625q-2.83447265625-1.1865234375-4.163818359375-2.197265625t-1.93359375-2.318115234375t-0.604248046875-3.218994140625q0-3.27392578125,2.537841796875-5.064697265625t7.196044921875-1.790771484375q4.4384765625,0,8.63525390625,1.93359375l-2.021484375,4.833984375q-1.845703125-0.791015625-3.44970703125-1.29638671875t-3.27392578125-0.50537109375q-2.96630859375,0-2.96630859375,1.60400390625q0,0.90087890625,0.955810546875,1.56005859375t4.185791015625,1.95556640625q2.87841796875,1.16455078125,4.21875,2.17529296875t1.9775390625,2.3291015625t0.63720703125,3.14208984375z"/></svg>
