<?xml version="1.0"?>
<svg version="1.1" xmlns="http://www.w3.org/2000/svg" width="400px" height="100px" style=""><path fill="#ababab" d="M66.4921875,79.98046875l0-35.693359375l7.568359375,0l0,29.443359375l14.4775390625,0l0,6.25l-22.0458984375,0z M97.272705078125,45.6298828125q0-3.6376953125,4.052734375-3.6376953125t4.052734375,3.6376953125q0,1.7333984375-1.01318359375,2.69775390625t-3.03955078125,0.96435546875q-4.052734375,0-4.052734375-3.662109375z M105.03637695312,79.98046875l-7.4462890625,0l0-27.294921875l7.4462890625,0l0,27.294921875z M122.77978515625,79.98046875l-10.400390625-27.294921875l7.7880859375,0l5.2734375,15.5517578125q0.87890625,2.9541015625,1.0986328125,5.5908203125l0.146484375,0q0.1220703125-2.34375,1.0986328125-5.5908203125l5.2490234375-15.5517578125l7.7880859375,0l-10.400390625,27.294921875l-7.6416015625,0z M159.46850585938,57.470703125q-2.3681640625,0-3.7109375,1.50146484375t-1.5380859375,4.26025390625l10.44921875,0q-0.048828125-2.7587890625-1.4404296875-4.26025390625t-3.759765625-1.50146484375z M160.51831054688,80.46875q-6.591796875,0-10.302734375-3.6376953125t-3.7109375-10.302734375q0-6.8603515625,3.43017578125-10.60791015625t9.48486328125-3.74755859375q5.7861328125,0,9.0087890625,3.2958984375t3.22265625,9.1064453125l0,3.61328125l-17.6025390625,0q0.1220703125,3.173828125,1.8798828125,4.9560546875t4.931640625,1.7822265625q2.4658203125,0,4.6630859375-0.5126953125t4.58984375-1.6357421875l0,5.76171875q-1.953125,0.9765625-4.1748046875,1.45263671875t-5.419921875,0.47607421875z"/><path fill="#e4f0b0" d="M208.3427734375,79.98046875l-2.587890625-8.49609375l-13.0126953125,0l-2.587890625,8.49609375l-8.154296875,0l12.59765625-35.83984375l9.2529296875,0l12.646484375,35.83984375l-8.154296875,0z M203.9482421875,65.13671875q-3.5888671875-11.5478515625-4.04052734375-13.0615234375t-0.64697265625-2.392578125q-0.8056640625,3.125-4.6142578125,15.4541015625l9.3017578125,0z M238.83032226562,80.46875q-4.8095703125,0-7.5439453125-3.4912109375l-0.390625,0q0.390625,3.41796875,0.390625,3.955078125l0,11.0595703125l-7.4462890625,0l0-39.306640625l6.0546875,0l1.0498046875,3.5400390625l0.341796875,0q2.6123046875-4.052734375,7.7392578125-4.052734375q4.833984375,0,7.568359375,3.7353515625t2.734375,10.3759765625q0,4.3701171875-1.28173828125,7.5927734375t-3.64990234375,4.9072265625t-5.56640625,1.6845703125z M236.63305664062,58.1298828125q-2.7587890625,0-4.0283203125,1.69677734375t-1.318359375,5.60302734375l0,0.8056640625q0,4.39453125,1.30615234375,6.298828125t4.13818359375,1.904296875q5.0048828125,0,5.0048828125-8.251953125q0-4.0283203125-1.23291015625-6.04248046875t-3.86962890625-2.01416015625z M273.90771484375,80.46875q-4.8095703125,0-7.5439453125-3.4912109375l-0.390625,0q0.390625,3.41796875,0.390625,3.955078125l0,11.0595703125l-7.4462890625,0l0-39.306640625l6.0546875,0l1.0498046875,3.5400390625l0.341796875,0q2.6123046875-4.052734375,7.7392578125-4.052734375q4.833984375,0,7.568359375,3.7353515625t2.734375,10.3759765625q0,4.3701171875-1.28173828125,7.5927734375t-3.64990234375,4.9072265625t-5.56640625,1.6845703125z M271.71044921875,58.1298828125q-2.7587890625,0-4.0283203125,1.69677734375t-1.318359375,5.60302734375l0,0.8056640625q0,4.39453125,1.30615234375,6.298828125t4.13818359375,1.904296875q5.0048828125,0,5.0048828125-8.251953125q0-4.0283203125-1.23291015625-6.04248046875t-3.86962890625-2.01416015625z M313.03784179688,71.875q0,4.19921875-2.91748046875,6.396484375t-8.72802734375,2.197265625q-2.978515625,0-5.078125-0.40283203125t-3.9306640625-1.18408203125l0-6.15234375q2.0751953125,0.9765625,4.67529296875,1.6357421875t4.57763671875,0.6591796875q4.052734375,0,4.052734375-2.34375q0-0.87890625-0.537109375-1.42822265625t-1.85546875-1.2451171875t-3.515625-1.62353515625q-3.1494140625-1.318359375-4.62646484375-2.44140625t-2.1484375-2.57568359375t-0.67138671875-3.57666015625q0-3.6376953125,2.81982421875-5.62744140625t7.99560546875-1.98974609375q4.931640625,0,9.5947265625,2.1484375l-2.24609375,5.37109375q-2.05078125-0.87890625-3.8330078125-1.4404296875t-3.6376953125-0.5615234375q-3.2958984375,0-3.2958984375,1.7822265625q0,1.0009765625,1.06201171875,1.7333984375t4.65087890625,2.1728515625q3.1982421875,1.2939453125,4.6875,2.4169921875t2.197265625,2.587890625t0.7080078125,3.4912109375z"/></svg>
